<svg xmlns="http://www.w3.org/2000/svg" width="1584" height="396" viewBox="0 0 1584 396">
  <defs>
    <linearGradient id="li-bg" x1="0%" y1="0%" x2="100%" y2="100%">
      <stop offset="0%" stop-color="#030712"/>
      <stop offset="40%" stop-color="#0a1628"/>
      <stop offset="100%" stop-color="#0f172a"/>
    </linearGradient>
    <radialGradient id="li-glow1" cx="15%" cy="50%" r="40%">
      <stop offset="0%" stop-color="rgba(59,130,246,0.08)"/>
      <stop offset="100%" stop-color="rgba(59,130,246,0)"/>
    </radialGradient>
    <radialGradient id="li-glow2" cx="90%" cy="40%" r="30%">
      <stop offset="0%" stop-color="rgba(6,182,212,0.06)"/>
      <stop offset="100%" stop-color="rgba(6,182,212,0)"/>
    </radialGradient>
    <radialGradient id="li-sphere" cx="38%" cy="32%" r="58%">
      <stop offset="0%" stop-color="#122a4a"/>
      <stop offset="60%" stop-color="#0a1628"/>
      <stop offset="100%" stop-color="#060c18"/>
    </radialGradient>
    <radialGradient id="li-shine" cx="32%" cy="22%" r="38%">
      <stop offset="0%" stop-color="rgba(6,182,212,0.3)"/>
      <stop offset="100%" stop-color="rgba(6,182,212,0)"/>
    </radialGradient>
  </defs>

  <!-- Background -->
  <rect width="1584" height="396" fill="url(#li-bg)"/>
  <rect width="1584" height="396" fill="url(#li-glow1)"/>
  <rect width="1584" height="396" fill="url(#li-glow2)"/>

  <!-- Subtle grid -->
  <g opacity="0.03" stroke="#fff" stroke-width="0.5">
    <line x1="0" y1="0" x2="0" y2="396"/><line x1="80" y1="0" x2="80" y2="396"/>
    <line x1="160" y1="0" x2="160" y2="396"/><line x1="240" y1="0" x2="240" y2="396"/>
    <line x1="320" y1="0" x2="320" y2="396"/><line x1="400" y1="0" x2="400" y2="396"/>
    <line x1="480" y1="0" x2="480" y2="396"/><line x1="560" y1="0" x2="560" y2="396"/>
    <line x1="640" y1="0" x2="640" y2="396"/><line x1="720" y1="0" x2="720" y2="396"/>
    <line x1="800" y1="0" x2="800" y2="396"/><line x1="880" y1="0" x2="880" y2="396"/>
    <line x1="960" y1="0" x2="960" y2="396"/><line x1="1040" y1="0" x2="1040" y2="396"/>
    <line x1="1120" y1="0" x2="1120" y2="396"/><line x1="1200" y1="0" x2="1200" y2="396"/>
    <line x1="1280" y1="0" x2="1280" y2="396"/><line x1="1360" y1="0" x2="1360" y2="396"/>
    <line x1="1440" y1="0" x2="1440" y2="396"/><line x1="1520" y1="0" x2="1520" y2="396"/>
    <line x1="0" y1="80" x2="1584" y2="80"/><line x1="0" y1="160" x2="1584" y2="160"/>
    <line x1="0" y1="240" x2="1584" y2="240"/><line x1="0" y1="320" x2="1584" y2="320"/>
  </g>

  <!-- Decorative dots -->
  <circle cx="100" cy="60" r="1.5" fill="#06b6d4" opacity="0.3"/>
  <circle cx="1480" cy="90" r="2" fill="#3b82f6" opacity="0.2"/>
  <circle cx="1400" cy="340" r="1.5" fill="#8b5cf6" opacity="0.2"/>
  <circle cx="180" cy="340" r="1" fill="#06b6d4" opacity="0.15"/>

  <!-- Top accent line -->
  <rect x="0" y="0" width="500" height="3" rx="1" fill="#3b82f6" opacity="0.6"/>

  <!-- Large decorative bolt (background) -->
  <g opacity="0.025" transform="translate(1100, 20)">
    <path d="M240 0L60 280h140l-36 260L420 200H240l36-200z" fill="#3b82f6"/>
  </g>

  <!-- Logo Icon -->
  <g transform="translate(100, 98)">
    <circle cx="100" cy="100" r="94" fill="url(#li-sphere)"/>
    <circle cx="100" cy="100" r="94" fill="url(#li-shine)"/>
    <circle cx="100" cy="100" r="90" fill="none" stroke="#0ea5e9" stroke-width="2.5" opacity="0.5"/>
    <path d="M118 12L52 109h47l-9 78L158 87H108l10-75z" fill="#3b82f6" stroke="#93c5fd" stroke-width="1.2"/>
    <circle cx="34" cy="47" r="2.5" fill="#06b6d4" opacity="0.8"/>
    <circle cx="166" cy="40" r="2" fill="#3b82f6" opacity="0.7"/>
    <circle cx="160" cy="160" r="1.5" fill="#8b5cf6" opacity="0.6"/>
  </g>

  <!-- Brand Name -->
  <text x="340" y="185" font-family="'Inter', 'Segoe UI', 'Helvetica Neue', Arial, sans-serif" font-size="72" font-weight="800" fill="#ffffff" letter-spacing="-1">Luzerge</text>

  <!-- Tagline -->
  <text x="344" y="228" font-family="'Inter', 'Segoe UI', 'Helvetica Neue', Arial, sans-serif" font-size="22" font-weight="400" fill="#94a3b8">Website Monitoring &amp; CDN Management Platform</text>

  <!-- Divider -->
  <rect x="344" y="248" width="60" height="2.5" rx="1" fill="#3b82f6" opacity="0.6"/>

  <!-- Feature pills -->
  <g transform="translate(344, 270)">
    <rect x="0" y="0" width="170" height="34" rx="17" fill="rgba(59,130,246,0.1)" stroke="rgba(59,130,246,0.2)" stroke-width="1"/>
    <circle cx="18" cy="17" r="3.5" fill="#3b82f6"/>
    <text x="30" y="22" font-family="'Inter', 'Segoe UI', Arial, sans-serif" font-size="13" font-weight="500" fill="#93c5fd">Uptime Monitoring</text>

    <rect x="184" y="0" width="170" height="34" rx="17" fill="rgba(6,182,212,0.1)" stroke="rgba(6,182,212,0.2)" stroke-width="1"/>
    <circle cx="202" cy="17" r="3.5" fill="#06b6d4"/>
    <text x="214" y="22" font-family="'Inter', 'Segoe UI', Arial, sans-serif" font-size="13" font-weight="500" fill="#67e8f9">CDN Management</text>

    <rect x="368" y="0" width="166" height="34" rx="17" fill="rgba(139,92,246,0.1)" stroke="rgba(139,92,246,0.2)" stroke-width="1"/>
    <circle cx="386" cy="17" r="3.5" fill="#8b5cf6"/>
    <text x="398" y="22" font-family="'Inter', 'Segoe UI', Arial, sans-serif" font-size="13" font-weight="500" fill="#c4b5fd">DDoS Protection</text>

    <rect x="548" y="0" width="148" height="34" rx="17" fill="rgba(52,211,153,0.1)" stroke="rgba(52,211,153,0.2)" stroke-width="1"/>
    <circle cx="566" cy="17" r="3.5" fill="#34d399"/>
    <text x="578" y="22" font-family="'Inter', 'Segoe UI', Arial, sans-serif" font-size="13" font-weight="500" fill="#6ee7b7">SSL &amp; DNS Tools</text>
  </g>

  <!-- Right side stats -->
  <g transform="translate(1100, 120)">
    <text x="0" y="28" font-family="'Inter', 'Segoe UI', Arial, sans-serif" font-size="36" font-weight="800" fill="#3b82f6">300+</text>
    <text x="0" y="50" font-family="'Inter', 'Segoe UI', Arial, sans-serif" font-size="12" font-weight="400" fill="#64748b">Edge Locations</text>

    <text x="0" y="108" font-family="'Inter', 'Segoe UI', Arial, sans-serif" font-size="36" font-weight="800" fill="#06b6d4">&lt;50ms</text>
    <text x="0" y="130" font-family="'Inter', 'Segoe UI', Arial, sans-serif" font-size="12" font-weight="400" fill="#64748b">Avg. Latency</text>

    <text x="0" y="188" font-family="'Inter', 'Segoe UI', Arial, sans-serif" font-size="36" font-weight="800" fill="#8b5cf6">99.9%</text>
    <text x="0" y="210" font-family="'Inter', 'Segoe UI', Arial, sans-serif" font-size="12" font-weight="400" fill="#64748b">Uptime SLA</text>
  </g>

  <!-- Separator line for stats -->
  <rect x="1084" y="130" width="2" height="200" rx="1" fill="rgba(255,255,255,0.06)"/>

  <!-- Website & contact -->
  <text x="344" y="340" font-family="'Inter', 'Segoe UI', Arial, sans-serif" font-size="15" font-weight="500" fill="#64748b">luzerge.com</text>
  <text x="480" y="340" font-family="'Inter', 'Segoe UI', Arial, sans-serif" font-size="15" font-weight="400" fill="#475569">|</text>
  <text x="498" y="340" font-family="'Inter', 'Segoe UI', Arial, sans-serif" font-size="15" font-weight="500" fill="#64748b">luzergeservices@gmail.com</text>

  <!-- Bottom accent line -->
  <rect x="0" y="393" width="1584" height="3" fill="#3b82f6" opacity="0.3"/>
</svg>
